<svg width="367" height="367" viewBox="0 0 367 367" fill="none" xmlns="http://www.w3.org/2000/svg">
<path d="M183.25 0C183.25 0 171.105 35.0068 171.105 54.2963C171.105 61.0039 176.542 66.4415 183.25 66.4415C189.958 66.4415 195.395 61.0039 195.395 54.2963C195.395 37.8645 183.25 0 183.25 0Z" fill="#1BBF19"/>
<path fill-rule="evenodd" clip-rule="evenodd" d="M183.25 286.484C240.462 286.484 286.841 240.105 286.841 182.893C286.841 125.681 240.462 79.3011 183.25 79.3011C126.038 79.3011 79.6583 125.681 79.6583 182.893C79.6583 203.733 85.8124 223.136 96.4026 239.384C100.722 237.739 105.861 235.437 108.235 233.26C109.009 232.55 109.889 231.619 110.887 230.561C115.418 225.762 122.411 218.356 133.24 217.185C143.814 216.042 160.984 220.757 168.247 223.258L200.039 231.831C202.063 232.426 205.826 234.403 204.683 237.546C203.254 241.476 197.896 241.476 194.323 241.476C192.866 241.476 190.575 241.238 187.864 240.956L187.86 240.955L187.859 240.955C183.928 240.547 179.115 240.047 174.677 240.047C168.676 240.047 159.078 242.428 155.03 243.619C156.459 244.095 160.031 244.905 162.889 244.333C163.737 244.164 164.706 243.934 165.748 243.686L165.751 243.685L165.752 243.685C169.098 242.891 173.195 241.918 176.463 242.19C177.595 242.284 179.177 242.429 180.944 242.59L180.958 242.591C185.876 243.04 192.223 243.619 194.323 243.619C194.463 243.619 194.615 243.62 194.778 243.621C197.965 243.638 205.467 243.68 206.826 237.903C207.183 236.475 206.969 233.117 203.254 231.116C207.183 229.092 216.756 223.543 223.615 217.542C232.188 210.041 238.975 208.255 246.119 211.827C251.835 214.685 247.072 220.638 243.976 223.258C239.094 229.211 227.83 241.976 221.829 245.405C215.828 248.834 197.896 259.217 189.68 263.98C186.465 265.647 177.249 268.124 166.104 264.694C152.172 260.408 139.67 256.836 134.312 257.193C128.954 257.55 121.095 259.693 116.808 262.194L116.671 262.259C134.676 277.378 157.899 286.484 183.25 286.484ZM154.673 118.237C154.673 123.169 150.675 127.168 145.743 127.168C140.811 127.168 136.812 123.169 136.812 118.237C136.812 113.305 140.811 109.307 145.743 109.307C150.675 109.307 154.673 113.305 154.673 118.237ZM221.114 109.307C224.329 109.307 229.688 111.807 229.688 118.237C229.688 123.953 225.044 126.81 221.114 126.81C217.185 126.81 212.541 123.953 212.541 117.88C212.541 111.807 217.542 109.307 221.114 109.307ZM216.471 128.596C217.423 129.549 219.686 131.454 221.114 131.454C222.543 131.454 224.567 129.549 225.401 128.596C227.187 128.358 231.259 128.525 233.26 131.097C235.76 134.312 236.117 135.026 241.475 147.529C245.762 157.531 246.596 160.507 246.476 160.746C246.834 161.936 247.191 164.461 245.762 165.032C243.976 165.747 242.904 164.675 241.475 161.817C240.332 159.531 234.093 146.814 231.116 140.742L232.545 205.754C232.545 206.945 231.831 209.326 228.973 209.326C225.401 209.326 224.686 207.183 224.686 205.04C224.686 203.325 222.067 179.321 220.757 167.533L217.185 205.04C217.185 206.469 216.328 209.326 212.898 209.326C210.041 209.326 209.326 206.112 209.684 203.968L210.755 141.099L198.967 163.96C198.491 164.437 197.181 165.175 195.752 164.318C194.324 163.46 195.395 160.627 196.11 159.317C198.967 150.863 205.397 133.383 208.255 131.097C211.113 128.811 214.923 128.477 216.471 128.596ZM183.25 171.462C186.406 171.462 188.965 168.903 188.965 165.747C188.965 162.59 186.406 160.031 183.25 160.031C180.093 160.031 177.535 162.59 177.535 165.747C177.535 168.903 180.093 171.462 183.25 171.462ZM130.025 176.106L136.455 141.099C133.24 146.933 126.453 159.245 125.024 161.817C123.238 165.032 122.167 165.747 120.381 164.675C118.952 163.818 120.023 160.746 120.738 159.317C123.476 153.125 129.525 139.456 131.811 134.312C134.098 129.168 139.194 128.12 141.456 128.239L145.743 137.527L149.672 128.239C155.387 128.239 158.96 132.764 160.031 135.026L169.676 157.888C170.748 160.031 172.462 164.461 170.748 165.032C169.033 165.604 167.652 164.318 167.175 163.603L155.03 141.099L161.103 176.106H155.03L153.244 207.183C153.125 207.898 152.458 209.326 150.744 209.326C149.029 209.326 148.6 207.898 148.6 207.183L146.814 176.106H144.671L142.885 206.469C142.766 207.421 142.099 209.326 140.384 209.326C138.67 209.326 138.241 207.898 138.241 207.183L136.455 176.106H130.025ZM165.032 165.032C165.27 164.556 166.104 164.032 167.533 165.747C168.961 167.461 173.605 171.224 175.748 172.891H190.037C192.537 170.986 197.824 166.818 198.967 165.389C199.444 164.913 200.61 164.103 201.468 164.675C202.539 165.389 201.825 167.175 200.039 168.961C199.625 169.375 199.211 169.847 198.735 170.389C197.157 172.187 194.894 174.764 189.68 178.606V192.18L190.037 207.183C190.037 207.898 189.68 209.326 188.251 209.326C186.822 209.326 186.227 208.374 186.108 207.898L183.25 191.823L180.392 207.898C180.273 208.374 179.678 209.326 178.249 209.326C176.82 209.326 176.463 207.898 176.463 207.183L177.535 192.18L177.177 178.249C175.51 177.535 171.462 175.177 168.604 171.462L164.675 166.461C164.556 166.14 164.461 165.404 165.032 165.032Z" fill="#1BBF19"/>
<path d="M195.395 312.204C195.395 331.493 183.25 366.5 183.25 366.5C183.25 366.5 171.105 328.635 171.105 312.204C171.105 305.496 176.542 300.058 183.25 300.058C189.958 300.058 195.395 305.496 195.395 312.204Z" fill="#1BBF19"/>
<path d="M312.204 171.105C331.493 171.105 366.5 183.25 366.5 183.25C366.5 183.25 328.635 195.395 312.204 195.395C305.496 195.395 300.058 189.958 300.058 183.25C300.058 176.542 305.496 171.105 312.204 171.105Z" fill="#1BBF19"/>
<path d="M0 183.25C0 183.25 35.0068 195.395 54.2963 195.395C61.0039 195.395 66.4415 189.958 66.4415 183.25C66.4415 176.542 61.0039 171.105 54.2963 171.105C37.8645 171.105 0 183.25 0 183.25Z" fill="#1BBF19"/>
<path d="M100.654 283.022C87.0142 296.662 53.6727 312.827 53.6727 312.827C53.6727 312.827 71.8589 277.465 83.478 265.846C88.221 261.103 95.9109 261.103 100.654 265.846C105.397 270.589 105.397 278.279 100.654 283.022Z" fill="#1BBF19"/>
<path d="M312.827 53.6727C312.827 53.6727 279.486 69.8382 265.846 83.478C261.103 88.221 261.103 95.9109 265.846 100.654C270.589 105.397 278.279 105.397 283.022 100.654C294.641 89.0349 312.827 53.6727 312.827 53.6727Z" fill="#1BBF19"/>
<path d="M283.022 265.846C296.662 279.486 312.827 312.827 312.827 312.827C312.827 312.827 277.465 294.641 265.846 283.022C261.103 278.279 261.103 270.589 265.846 265.846C270.589 261.103 278.279 261.103 283.022 265.846Z" fill="#1BBF19"/>
<path d="M53.6727 53.6727C53.6727 53.6727 69.8382 87.0142 83.478 100.654C88.221 105.397 95.9109 105.397 100.654 100.654C105.397 95.9109 105.397 88.221 100.654 83.478C89.0349 71.8589 53.6727 53.6727 53.6727 53.6727Z" fill="#1BBF19"/>
<path d="M145.568 307.172C138.25 325.019 113.733 352.802 113.733 352.802C113.733 352.802 116.859 313.16 123.093 297.957C125.638 291.751 132.732 288.782 138.938 291.327C145.144 293.872 148.112 300.965 145.568 307.172Z" fill="#1BBF19"/>
<path d="M252.767 13.6979C252.767 13.6979 228.25 41.4806 220.932 59.3282C218.387 65.5344 221.356 72.6283 227.562 75.1729C233.768 77.7175 240.862 74.7491 243.407 68.5429C249.64 53.3394 252.767 13.6979 252.767 13.6979Z" fill="#1BBF19"/>
<path d="M307.172 220.932C325.019 228.25 352.802 252.767 352.802 252.767C352.802 252.767 313.16 249.64 297.957 243.407C291.751 240.862 288.782 233.768 291.327 227.562C293.872 221.356 300.965 218.388 307.172 220.932Z" fill="#1BBF19"/>
<path d="M13.6979 113.733C13.6979 113.733 41.4805 138.25 59.3281 145.568C65.5344 148.112 72.6283 145.144 75.1729 138.938C77.7175 132.732 74.7491 125.638 68.5429 123.093C53.3394 116.86 13.6979 113.733 13.6979 113.733Z" fill="#1BBF19"/>
<path d="M68.9787 244.231C51.1842 251.676 14.2024 253.985 14.2024 253.985C14.2024 253.985 44.4442 228.165 59.6024 221.823C65.7902 219.234 72.9053 222.151 75.4945 228.339C78.0836 234.526 75.1664 241.641 68.9787 244.231Z" fill="#1BBF19"/>
<path d="M352.297 112.515C352.297 112.515 315.316 114.823 297.521 122.269C291.333 124.858 288.416 131.974 291.005 138.161C293.595 144.349 300.71 147.266 306.897 144.677C322.056 138.334 352.297 112.515 352.297 112.515Z" fill="#1BBF19"/>
<path d="M244.231 297.521C251.676 315.316 253.985 352.297 253.985 352.297C253.985 352.297 228.165 322.056 221.823 306.897C219.233 300.71 222.151 293.595 228.339 291.005C234.526 288.416 241.641 291.333 244.231 297.521Z" fill="#1BBF19"/>
<path d="M112.515 14.2024C112.515 14.2024 114.823 51.1842 122.269 68.9787C124.858 75.1664 131.974 78.0837 138.161 75.4945C144.349 72.9053 147.266 65.7902 144.677 59.6025C138.334 44.4442 112.515 14.2024 112.515 14.2024Z" fill="#1BBF19"/>
</svg>
